<?xml version="1.0" encoding="UTF-8"?><svg id="Layer_2" xmlns="http://www.w3.org/2000/svg" viewBox="0 0 1208 1208"><defs><style>.cls-1{fill:#f7f1f5;stroke:#f7f1f5;stroke-miterlimit:10;stroke-width:8px;}</style></defs><g id="pattern"><path class="cls-1" d="M74.39,42.82c0,10.9,4.24,21.14,11.95,28.84,7.7,7.7,17.95,11.95,28.84,11.95s21.14-4.24,28.84-11.95L211.69,4h-7.07l-64.12,64.12c-6.76,6.76-15.75,10.48-25.31,10.48s-18.55-3.72-25.31-10.48c-6.76-6.76-10.48-15.75-10.48-25.31s3.72-18.55,10.48-25.31l13.51-13.51h-7.07l-9.97,9.97c-7.7,7.7-11.95,17.95-11.95,28.84Z"/><polygon class="cls-1" points="182.84 29.31 157.54 4 150.46 4 179.31 32.84 182.84 29.31"/><path class="cls-1" d="M224.39,42.82c0,10.9,4.24,21.14,11.95,28.84,7.7,7.7,17.95,11.95,28.84,11.95s21.14-4.24,28.84-11.95L361.69,4h-7.07l-64.12,64.12c-6.76,6.76-15.75,10.48-25.31,10.48s-18.55-3.72-25.31-10.48c-6.76-6.76-10.48-15.75-10.48-25.31s3.72-18.55,10.48-25.31l13.51-13.51h-7.07l-9.97,9.97c-7.7,7.7-11.95,17.95-11.95,28.84Z"/><polygon class="cls-1" points="332.84 29.31 307.54 4 300.46 4 329.31 32.84 332.84 29.31"/><path class="cls-1" d="M374.39,42.82c0,10.9,4.24,21.14,11.95,28.84,7.7,7.7,17.95,11.95,28.84,11.95s21.14-4.24,28.84-11.95L511.69,4h-7.07l-64.12,64.12c-6.76,6.76-15.75,10.48-25.31,10.48s-18.55-3.72-25.31-10.48c-6.76-6.76-10.48-15.75-10.48-25.31s3.72-18.55,10.48-25.31l13.51-13.51h-7.07l-9.97,9.97c-7.7,7.7-11.95,17.95-11.95,28.84Z"/><polygon class="cls-1" points="482.84 29.31 457.54 4 450.46 4 479.31 32.84 482.84 29.31"/><path class="cls-1" d="M524.39,42.82c0,10.9,4.24,21.14,11.95,28.84,7.7,7.7,17.95,11.95,28.84,11.95s21.14-4.24,28.84-11.95L661.69,4h-7.07l-64.12,64.12c-6.76,6.76-15.75,10.48-25.31,10.48s-18.55-3.72-25.31-10.48c-6.76-6.76-10.48-15.75-10.48-25.31s3.72-18.55,10.48-25.31l13.51-13.51h-7.07l-9.97,9.97c-7.7,7.7-11.95,17.95-11.95,28.84Z"/><polygon class="cls-1" points="632.84 29.31 607.54 4 600.46 4 629.31 32.84 632.84 29.31"/><path class="cls-1" d="M674.39,42.82c0,10.9,4.24,21.14,11.95,28.84,7.7,7.7,17.95,11.95,28.84,11.95s21.14-4.24,28.84-11.95L811.69,4h-7.07l-64.12,64.12c-6.76,6.76-15.75,10.48-25.31,10.48s-18.55-3.72-25.31-10.48c-6.76-6.76-10.48-15.75-10.48-25.31s3.72-18.55,10.48-25.31l13.51-13.51h-7.07l-9.97,9.97c-7.7,7.7-11.95,17.95-11.95,28.84Z"/><polygon class="cls-1" points="782.84 29.31 757.54 4 750.46 4 779.31 32.84 782.84 29.31"/><path class="cls-1" d="M824.39,42.82c0,10.9,4.24,21.14,11.95,28.84,7.7,7.7,17.95,11.95,28.84,11.95s21.14-4.24,28.84-11.95L961.69,4h-7.07l-64.12,64.12c-6.76,6.76-15.75,10.48-25.31,10.48s-18.55-3.72-25.31-10.48c-6.76-6.76-10.48-15.75-10.48-25.31s3.72-18.55,10.48-25.31l13.51-13.51h-7.07l-9.97,9.97c-7.7,7.7-11.95,17.95-11.95,28.84Z"/><polygon class="cls-1" points="932.84 29.31 907.54 4 900.46 4 929.31 32.84 932.84 29.31"/><path class="cls-1" d="M974.39,42.82c0,10.9,4.24,21.14,11.95,28.84,7.7,7.7,17.95,11.95,28.84,11.95s21.14-4.24,28.84-11.95l67.66-67.66h-7.07l-64.12,64.12c-6.76,6.76-15.75,10.48-25.31,10.48s-18.55-3.72-25.31-10.48c-6.76-6.76-10.48-15.75-10.48-25.31s3.72-18.55,10.48-25.31l13.51-13.51h-7.07l-9.97,9.97c-7.7,7.7-11.95,17.95-11.95,28.84Z"/><polygon class="cls-1" points="1082.84 29.31 1057.54 4 1050.46 4 1079.31 32.84 1082.84 29.31"/><path class="cls-1" d="M1190.49,68.12c-6.76,6.76-15.75,10.48-25.31,10.48s-18.55-3.72-25.31-10.48c-6.76-6.76-10.48-15.75-10.48-25.31s3.72-18.55,10.48-25.31l13.51-13.51h-7.07l-9.97,9.97c-7.7,7.7-11.95,17.95-11.95,28.84s4.24,21.14,11.95,28.84c7.7,7.7,17.95,11.95,28.84,11.95s21.14-4.24,28.84-11.95l9.97-9.97v-7.07l-13.51,13.51Z"/><polygon class="cls-1" points="1200.46 4 1204 7.54 1204 4 1200.46 4"/><path class="cls-1" d="M83.61,265.18c0-10.9-4.24-21.14-11.95-28.84-7.7-7.7-17.95-11.95-28.84-11.95s-21.14,4.24-28.84,11.95l-9.97,9.97v7.07l13.51-13.51c6.76-6.76,15.75-10.48,25.31-10.48s18.55,3.72,25.31,10.48c6.76,6.76,10.48,15.75,10.48,25.31s-3.72,18.55-10.48,25.31L4,354.62v7.07l67.66-67.66c7.7-7.7,11.95-17.95,11.95-28.84Z"/><polygon class="cls-1" points="32.84 329.31 4 300.46 4 307.54 29.31 332.84 32.84 329.31"/><path class="cls-1" d="M115.18,383.61c-10.9,0-21.14-4.24-28.84-11.95-7.7-7.7-11.95-17.95-11.95-28.84s4.24-21.14,11.95-28.84l77.63-77.63c7.7-7.7,17.95-11.95,28.84-11.95s21.14,4.24,28.84,11.95h0c7.7,7.7,11.95,17.95,11.95,28.84s-4.24,21.14-11.95,28.84l-77.63,77.63c-7.7,7.7-17.95,11.95-28.84,11.95ZM192.82,229.39c-9.56,0-18.55,3.72-25.31,10.48l-77.63,77.63c-6.76,6.76-10.48,15.75-10.48,25.31s3.72,18.55,10.48,25.31c6.76,6.76,15.75,10.48,25.31,10.48s18.55-3.72,25.31-10.48l77.63-77.63c6.76-6.76,10.48-15.75,10.48-25.31s-3.72-18.55-10.48-25.31h0c-6.76-6.76-15.75-10.48-25.31-10.48Z"/><rect class="cls-1" x="151.5" y="265.71" width="5" height="76.58" transform="translate(-169.86 197.93) rotate(-45)"/><path class="cls-1" d="M265.18,383.61c-10.9,0-21.14-4.24-28.84-11.95-7.7-7.7-11.95-17.95-11.95-28.84s4.24-21.14,11.95-28.84l77.63-77.63c7.7-7.7,17.95-11.95,28.84-11.95s21.14,4.24,28.84,11.95h0c7.7,7.7,11.95,17.95,11.95,28.84s-4.24,21.14-11.95,28.84l-77.63,77.63c-7.7,7.7-17.95,11.95-28.84,11.95ZM342.82,229.39c-9.56,0-18.55,3.72-25.31,10.48l-77.63,77.63c-6.76,6.76-10.48,15.75-10.48,25.31s3.72,18.55,10.48,25.31c6.76,6.76,15.75,10.48,25.31,10.48s18.55-3.72,25.31-10.48l77.63-77.63c6.76-6.76,10.48-15.75,10.48-25.31s-3.72-18.55-10.48-25.31h0c-6.76-6.76-15.75-10.48-25.31-10.48Z"/><rect class="cls-1" x="301.5" y="265.71" width="5" height="76.58" transform="translate(-125.92 304) rotate(-45)"/><path class="cls-1" d="M415.18,383.61c-10.9,0-21.14-4.24-28.84-11.95-7.7-7.7-11.95-17.95-11.95-28.84s4.24-21.14,11.95-28.84l77.63-77.63c7.7-7.7,17.95-11.95,28.84-11.95s21.14,4.24,28.84,11.95h0c7.7,7.7,11.95,17.95,11.95,28.84s-4.24,21.14-11.95,28.84l-77.63,77.63c-7.7,7.7-17.95,11.95-28.84,11.95ZM492.82,229.39c-9.56,0-18.55,3.72-25.31,10.48l-77.63,77.63c-6.76,6.76-10.48,15.75-10.48,25.31s3.72,18.55,10.48,25.31c6.76,6.76,15.75,10.48,25.31,10.48s18.55-3.72,25.31-10.48l77.63-77.63c6.76-6.76,10.48-15.75,10.48-25.31s-3.72-18.55-10.48-25.31h0c-6.76-6.76-15.75-10.48-25.31-10.48Z"/><rect class="cls-1" x="451.5" y="265.71" width="5" height="76.58" transform="translate(-81.99 410.07) rotate(-45)"/><path class="cls-1" d="M565.18,383.61c-10.9,0-21.14-4.24-28.84-11.95-7.7-7.7-11.95-17.95-11.95-28.84s4.24-21.14,11.95-28.84l77.63-77.63c7.7-7.7,17.95-11.95,28.84-11.95s21.14,4.24,28.84,11.95h0c7.7,7.7,11.95,17.95,11.95,28.84s-4.24,21.14-11.95,28.84l-77.63,77.63c-7.7,7.7-17.95,11.95-28.84,11.95ZM642.82,229.39c-9.56,0-18.55,3.72-25.31,10.48l-77.63,77.63c-6.76,6.76-10.48,15.75-10.48,25.31s3.72,18.55,10.48,25.31c6.76,6.76,15.75,10.48,25.31,10.48s18.55-3.72,25.31-10.48l77.63-77.63c6.76-6.76,10.48-15.75,10.48-25.31s-3.72-18.55-10.48-25.31h0c-6.76-6.76-15.75-10.48-25.31-10.48Z"/><rect class="cls-1" x="601.5" y="265.71" width="5" height="76.58" transform="translate(-38.05 516.13) rotate(-45)"/><path class="cls-1" d="M715.18,383.61c-10.9,0-21.14-4.24-28.84-11.95-7.7-7.7-11.95-17.95-11.95-28.84s4.24-21.14,11.95-28.84l77.63-77.63c7.7-7.7,17.95-11.95,28.84-11.95s21.14,4.24,28.84,11.95h0c7.7,7.7,11.95,17.95,11.95,28.84s-4.24,21.14-11.95,28.84l-77.63,77.63c-7.7,7.7-17.95,11.95-28.84,11.95ZM792.82,229.39c-9.56,0-18.55,3.72-25.31,10.48l-77.63,77.63c-6.76,6.76-10.48,15.75-10.48,25.31s3.72,18.55,10.48,25.31c6.76,6.76,15.75,10.48,25.31,10.48s18.55-3.72,25.31-10.48l77.63-77.63c6.76-6.76,10.48-15.75,10.48-25.31s-3.72-18.55-10.48-25.31h0c-6.76-6.76-15.75-10.48-25.31-10.48Z"/><rect class="cls-1" x="751.5" y="265.71" width="5" height="76.58" transform="translate(5.88 622.2) rotate(-45)"/><path class="cls-1" d="M865.18,383.61c-10.9,0-21.14-4.24-28.84-11.95-7.7-7.7-11.95-17.95-11.95-28.84s4.24-21.14,11.95-28.84l77.63-77.63c7.7-7.7,17.95-11.95,28.84-11.95s21.14,4.24,28.84,11.95h0c7.7,7.7,11.95,17.95,11.95,28.84s-4.24,21.14-11.95,28.84l-77.63,77.63c-7.7,7.7-17.95,11.95-28.84,11.95ZM942.82,229.39c-9.56,0-18.55,3.72-25.31,10.48l-77.63,77.63c-6.76,6.76-10.48,15.75-10.48,25.31s3.72,18.55,10.48,25.31c6.76,6.76,15.75,10.48,25.31,10.48s18.55-3.72,25.31-10.48l77.63-77.63c6.76-6.76,10.48-15.75,10.48-25.31s-3.72-18.55-10.48-25.31h0c-6.76-6.76-15.75-10.48-25.31-10.48Z"/><rect class="cls-1" x="901.5" y="265.71" width="5" height="76.58" transform="translate(49.81 728.26) rotate(-45)"/><path class="cls-1" d="M1015.18,383.61c-10.9,0-21.14-4.24-28.84-11.95-7.7-7.7-11.95-17.95-11.95-28.84s4.24-21.14,11.95-28.84l77.63-77.63c7.7-7.7,17.95-11.95,28.84-11.95s21.14,4.24,28.84,11.95h0c7.7,7.7,11.95,17.95,11.95,28.84s-4.24,21.14-11.95,28.84l-77.63,77.63c-7.7,7.7-17.95,11.95-28.84,11.95ZM1092.82,229.39c-9.56,0-18.55,3.72-25.31,10.48l-77.63,77.63c-6.76,6.76-10.48,15.75-10.48,25.31s3.72,18.55,10.48,25.31c6.76,6.76,15.75,10.48,25.31,10.48s18.55-3.72,25.31-10.48l77.63-77.63c6.76-6.76,10.48-15.75,10.48-25.31s-3.72-18.55-10.48-25.31h0c-6.76-6.76-15.75-10.48-25.31-10.48Z"/><rect class="cls-1" x="1051.5" y="265.71" width="5" height="76.58" transform="translate(93.75 834.33) rotate(-45)"/><path class="cls-1" d="M1190.49,368.12c-6.76,6.76-15.75,10.48-25.31,10.48s-18.55-3.72-25.31-10.48c-6.76-6.76-10.48-15.75-10.48-25.31s3.72-18.55,10.48-25.31l64.12-64.12v-7.07l-67.66,67.66c-7.7,7.7-11.95,17.95-11.95,28.84s4.24,21.14,11.95,28.84c7.7,7.7,17.95,11.95,28.84,11.95s21.14-4.24,28.84-11.95l9.97-9.97v-7.07l-13.51,13.51Z"/><polygon class="cls-1" points="1178.69 275.16 1175.16 278.69 1204 307.54 1204 300.47 1178.69 275.16"/><path class="cls-1" d="M83.61,565.18c0-10.9-4.24-21.14-11.95-28.84-7.7-7.7-17.95-11.95-28.84-11.95s-21.14,4.24-28.84,11.95l-9.97,9.97v7.07l13.51-13.51c6.76-6.76,15.75-10.48,25.31-10.48s18.55,3.72,25.31,10.48c6.76,6.76,10.48,15.75,10.48,25.31s-3.72,18.55-10.48,25.31L4,654.62v7.07l67.66-67.66c7.7-7.7,11.95-17.95,11.95-28.84Z"/><polygon class="cls-1" points="32.84 629.31 4 600.46 4 607.54 29.31 632.84 32.84 629.31"/><path class="cls-1" d="M115.18,683.61c-10.9,0-21.14-4.24-28.84-11.95-7.7-7.7-11.95-17.95-11.95-28.84s4.24-21.14,11.95-28.84l77.63-77.63c7.7-7.7,17.95-11.95,28.84-11.95s21.14,4.24,28.84,11.95h0c7.7,7.7,11.95,17.95,11.95,28.84s-4.24,21.14-11.95,28.84l-77.63,77.63c-7.7,7.7-17.95,11.95-28.84,11.95ZM192.82,529.39c-9.56,0-18.55,3.72-25.31,10.48l-77.63,77.63c-6.76,6.76-10.48,15.75-10.48,25.31s3.72,18.55,10.48,25.31c6.76,6.76,15.75,10.48,25.31,10.48s18.55-3.72,25.31-10.48l77.63-77.63c6.76-6.76,10.48-15.75,10.48-25.31s-3.72-18.55-10.48-25.31h0c-6.76-6.76-15.75-10.48-25.31-10.48Z"/><rect class="cls-1" x="151.5" y="565.71" width="5" height="76.58" transform="translate(-381.99 285.8) rotate(-45)"/><path class="cls-1" d="M265.18,683.61c-10.9,0-21.14-4.24-28.84-11.95-7.7-7.7-11.95-17.95-11.95-28.84s4.24-21.14,11.95-28.84l77.63-77.63c7.7-7.7,17.95-11.95,28.84-11.95s21.14,4.24,28.84,11.95h0c7.7,7.7,11.95,17.95,11.95,28.84s-4.24,21.14-11.95,28.84l-77.63,77.63c-7.7,7.7-17.95,11.95-28.84,11.95ZM342.82,529.39c-9.56,0-18.55,3.72-25.31,10.48l-77.63,77.63c-6.76,6.76-10.48,15.75-10.48,25.31s3.72,18.55,10.48,25.31c6.76,6.76,15.75,10.48,25.31,10.48s18.55-3.72,25.31-10.48l77.63-77.63c6.76-6.76,10.48-15.75,10.48-25.31s-3.72-18.55-10.48-25.31h0c-6.76-6.76-15.75-10.48-25.31-10.48Z"/><rect class="cls-1" x="301.5" y="565.71" width="5" height="76.58" transform="translate(-338.05 391.87) rotate(-45)"/><path class="cls-1" d="M415.18,683.61c-10.9,0-21.14-4.24-28.84-11.95-7.7-7.7-11.95-17.95-11.95-28.84s4.24-21.14,11.95-28.84l77.63-77.63c7.7-7.7,17.95-11.95,28.84-11.95s21.14,4.24,28.84,11.95h0c7.7,7.7,11.95,17.95,11.95,28.84s-4.24,21.14-11.95,28.84l-77.63,77.63c-7.7,7.7-17.95,11.95-28.84,11.95ZM492.82,529.39c-9.56,0-18.55,3.72-25.31,10.48l-77.63,77.63c-6.76,6.76-10.48,15.75-10.48,25.31s3.72,18.55,10.48,25.31c6.76,6.76,15.75,10.48,25.31,10.48s18.55-3.72,25.31-10.48l77.63-77.63c6.76-6.76,10.48-15.75,10.48-25.31s-3.72-18.55-10.48-25.31h0c-6.76-6.76-15.75-10.48-25.31-10.48Z"/><rect class="cls-1" x="451.5" y="565.71" width="5" height="76.58" transform="translate(-294.12 497.93) rotate(-45)"/><path class="cls-1" d="M565.18,683.61c-10.9,0-21.14-4.24-28.84-11.95-7.7-7.7-11.95-17.95-11.95-28.84s4.24-21.14,11.95-28.84l77.63-77.63c7.7-7.7,17.95-11.95,28.84-11.95s21.14,4.24,28.84,11.95h0c7.7,7.7,11.95,17.95,11.95,28.84s-4.24,21.14-11.95,28.84l-77.63,77.63c-7.7,7.7-17.95,11.95-28.84,11.95ZM642.82,529.39c-9.56,0-18.55,3.72-25.31,10.48l-77.63,77.63c-6.76,6.76-10.48,15.75-10.48,25.31s3.72,18.55,10.48,25.31c6.76,6.76,15.75,10.48,25.31,10.48s18.55-3.72,25.31-10.48l77.63-77.63c6.76-6.76,10.48-15.75,10.48-25.31s-3.72-18.55-10.48-25.31h0c-6.76-6.76-15.75-10.48-25.31-10.48Z"/><rect class="cls-1" x="601.5" y="565.71" width="5" height="76.58" transform="translate(-250.19 604) rotate(-45)"/><path class="cls-1" d="M715.18,683.61c-10.9,0-21.14-4.24-28.84-11.95-7.7-7.7-11.95-17.95-11.95-28.84s4.24-21.14,11.95-28.84l77.63-77.63c7.7-7.7,17.95-11.95,28.84-11.95s21.14,4.24,28.84,11.95h0c7.7,7.7,11.95,17.95,11.95,28.84s-4.24,21.14-11.95,28.84l-77.63,77.63c-7.7,7.7-17.95,11.95-28.84,11.95ZM792.82,529.39c-9.56,0-18.55,3.72-25.31,10.48l-77.63,77.63c-6.76,6.76-10.48,15.75-10.48,25.31s3.72,18.55,10.48,25.31c6.76,6.76,15.75,10.48,25.31,10.48s18.55-3.72,25.31-10.48l77.63-77.63c6.76-6.76,10.48-15.75,10.48-25.31s-3.72-18.55-10.48-25.31h0c-6.76-6.76-15.75-10.48-25.31-10.48Z"/><rect class="cls-1" x="751.5" y="565.71" width="5" height="76.58" transform="translate(-206.25 710.07) rotate(-45)"/><path class="cls-1" d="M865.18,683.61c-10.9,0-21.14-4.24-28.84-11.95-7.7-7.7-11.95-17.95-11.95-28.84s4.24-21.14,11.95-28.84l77.63-77.63c7.7-7.7,17.95-11.95,28.84-11.95s21.14,4.24,28.84,11.95h0c7.7,7.7,11.95,17.95,11.95,28.84s-4.24,21.14-11.95,28.84l-77.63,77.63c-7.7,7.7-17.95,11.95-28.84,11.95ZM942.82,529.39c-9.56,0-18.55,3.72-25.31,10.48l-77.63,77.63c-6.76,6.76-10.48,15.75-10.48,25.31s3.72,18.55,10.48,25.31c6.76,6.76,15.75,10.48,25.31,10.48s18.55-3.72,25.31-10.48l77.63-77.63c6.76-6.76,10.48-15.75,10.48-25.31s-3.72-18.55-10.48-25.31h0c-6.76-6.76-15.75-10.48-25.31-10.48Z"/><rect class="cls-1" x="901.5" y="565.71" width="5" height="76.58" transform="translate(-162.32 816.13) rotate(-45)"/><path class="cls-1" d="M1015.18,683.61c-10.9,0-21.14-4.24-28.84-11.95-7.7-7.7-11.95-17.95-11.95-28.84s4.24-21.14,11.95-28.84l77.63-77.63c7.7-7.7,17.95-11.95,28.84-11.95s21.14,4.24,28.84,11.95h0c7.7,7.7,11.95,17.95,11.95,28.84s-4.24,21.14-11.95,28.84l-77.63,77.63c-7.7,7.7-17.95,11.95-28.84,11.95ZM1092.82,529.39c-9.56,0-18.55,3.72-25.31,10.48l-77.63,77.63c-6.76,6.76-10.48,15.75-10.48,25.31s3.72,18.55,10.48,25.31c6.76,6.76,15.75,10.48,25.31,10.48s18.55-3.72,25.31-10.48l77.63-77.63c6.76-6.76,10.48-15.75,10.48-25.31s-3.72-18.55-10.48-25.31h0c-6.76-6.76-15.75-10.48-25.31-10.48Z"/><rect class="cls-1" x="1051.5" y="565.71" width="5" height="76.58" transform="translate(-118.38 922.2) rotate(-45)"/><path class="cls-1" d="M1190.49,668.12c-6.76,6.76-15.75,10.48-25.31,10.48s-18.55-3.72-25.31-10.48c-6.76-6.76-10.48-15.75-10.48-25.31s3.72-18.55,10.48-25.31l64.12-64.12v-7.07l-67.66,67.66c-7.7,7.7-11.95,17.95-11.95,28.84s4.24,21.14,11.95,28.84c7.7,7.7,17.95,11.95,28.84,11.95s21.14-4.24,28.84-11.95l9.97-9.97v-7.07l-13.51,13.51Z"/><polygon class="cls-1" points="1178.69 575.16 1175.16 578.69 1204 607.54 1204 600.47 1178.69 575.16"/><path class="cls-1" d="M83.61,865.18c0-10.9-4.24-21.14-11.95-28.84-7.7-7.7-17.95-11.95-28.84-11.95s-21.14,4.24-28.84,11.95l-9.97,9.97v7.07l13.51-13.51c6.76-6.76,15.75-10.48,25.31-10.48s18.55,3.72,25.31,10.48c6.76,6.76,10.48,15.75,10.48,25.31s-3.72,18.55-10.48,25.31L4,954.62v7.07l67.66-67.66c7.7-7.7,11.95-17.95,11.95-28.84Z"/><polygon class="cls-1" points="32.84 929.31 4 900.46 4 907.54 29.31 932.84 32.84 929.31"/><path class="cls-1" d="M115.18,983.61c-10.9,0-21.14-4.24-28.84-11.95-7.7-7.7-11.95-17.95-11.95-28.84s4.24-21.14,11.95-28.84l77.63-77.63c7.7-7.7,17.95-11.95,28.84-11.95s21.14,4.24,28.84,11.95h0c7.7,7.7,11.95,17.95,11.95,28.84s-4.24,21.14-11.95,28.84l-77.63,77.63c-7.7,7.7-17.95,11.95-28.84,11.95ZM192.82,829.39c-9.56,0-18.55,3.72-25.31,10.48l-77.63,77.63c-6.76,6.76-10.48,15.75-10.48,25.31s3.72,18.55,10.48,25.31c6.76,6.76,15.75,10.48,25.31,10.48s18.55-3.72,25.31-10.48l77.63-77.63c6.76-6.76,10.48-15.75,10.48-25.31s-3.72-18.55-10.48-25.31h0c-6.76-6.76-15.75-10.48-25.31-10.48Z"/><rect class="cls-1" x="151.5" y="865.71" width="5" height="76.58" transform="translate(-594.12 373.67) rotate(-45)"/><path class="cls-1" d="M265.18,983.61c-10.9,0-21.14-4.24-28.84-11.95-7.7-7.7-11.95-17.95-11.95-28.84s4.24-21.14,11.95-28.84l77.63-77.63c7.7-7.7,17.95-11.95,28.84-11.95s21.14,4.24,28.84,11.95h0c7.7,7.7,11.95,17.95,11.95,28.84s-4.24,21.14-11.95,28.84l-77.63,77.63c-7.7,7.7-17.95,11.95-28.84,11.95ZM342.82,829.39c-9.56,0-18.55,3.72-25.31,10.48l-77.63,77.63c-6.76,6.76-10.48,15.75-10.48,25.31s3.72,18.55,10.48,25.31c6.76,6.76,15.75,10.48,25.31,10.48s18.55-3.72,25.31-10.48l77.63-77.63c6.76-6.76,10.48-15.75,10.48-25.31s-3.72-18.55-10.48-25.31h0c-6.76-6.76-15.75-10.48-25.31-10.48Z"/><rect class="cls-1" x="301.5" y="865.71" width="5" height="76.58" transform="translate(-550.19 479.74) rotate(-45)"/><path class="cls-1" d="M415.18,983.61c-10.9,0-21.14-4.24-28.84-11.95-7.7-7.7-11.95-17.95-11.95-28.84s4.24-21.14,11.95-28.84l77.63-77.63c7.7-7.7,17.95-11.95,28.84-11.95s21.14,4.24,28.84,11.95h0c7.7,7.7,11.95,17.95,11.95,28.84s-4.24,21.14-11.95,28.84l-77.63,77.63c-7.7,7.7-17.95,11.95-28.84,11.95ZM492.82,829.39c-9.56,0-18.55,3.72-25.31,10.48l-77.63,77.63c-6.76,6.76-10.48,15.75-10.48,25.31s3.72,18.55,10.48,25.31c6.76,6.76,15.75,10.48,25.31,10.48s18.55-3.72,25.31-10.48l77.63-77.63c6.76-6.76,10.48-15.75,10.48-25.31s-3.72-18.55-10.48-25.31h0c-6.76-6.76-15.75-10.48-25.31-10.48Z"/><rect class="cls-1" x="451.5" y="865.71" width="5" height="76.58" transform="translate(-506.25 585.8) rotate(-45)"/><path class="cls-1" d="M565.18,983.61c-10.9,0-21.14-4.24-28.84-11.95-7.7-7.7-11.95-17.95-11.95-28.84s4.24-21.14,11.95-28.84l77.63-77.63c7.7-7.7,17.95-11.95,28.84-11.95s21.14,4.24,28.84,11.95h0c7.7,7.7,11.95,17.95,11.95,28.84s-4.24,21.14-11.95,28.84l-77.63,77.63c-7.7,7.7-17.95,11.95-28.84,11.95ZM642.82,829.39c-9.56,0-18.55,3.72-25.31,10.48l-77.63,77.63c-6.76,6.76-10.48,15.75-10.48,25.31s3.72,18.55,10.48,25.31c6.76,6.76,15.75,10.48,25.31,10.48s18.55-3.72,25.31-10.48l77.63-77.63c6.76-6.76,10.48-15.75,10.48-25.31s-3.72-18.55-10.48-25.31h0c-6.76-6.76-15.75-10.48-25.31-10.48Z"/><rect class="cls-1" x="601.5" y="865.71" width="5" height="76.58" transform="translate(-462.32 691.87) rotate(-45)"/><path class="cls-1" d="M715.18,983.61c-10.9,0-21.14-4.24-28.84-11.95-7.7-7.7-11.95-17.95-11.95-28.84s4.24-21.14,11.95-28.84l77.63-77.63c7.7-7.7,17.95-11.95,28.84-11.95s21.14,4.24,28.84,11.95h0c7.7,7.7,11.95,17.95,11.95,28.84s-4.24,21.14-11.95,28.84l-77.63,77.63c-7.7,7.7-17.95,11.95-28.84,11.95ZM792.82,829.39c-9.56,0-18.55,3.72-25.31,10.48l-77.63,77.63c-6.76,6.76-10.48,15.75-10.48,25.31s3.72,18.55,10.48,25.31c6.76,6.76,15.75,10.48,25.31,10.48s18.55-3.72,25.31-10.48l77.63-77.63c6.76-6.76,10.48-15.75,10.48-25.31s-3.72-18.55-10.48-25.31h0c-6.76-6.76-15.75-10.48-25.31-10.48Z"/><rect class="cls-1" x="751.5" y="865.71" width="5" height="76.58" transform="translate(-418.38 797.93) rotate(-45)"/><path class="cls-1" d="M865.18,983.61c-10.9,0-21.14-4.24-28.84-11.95-7.7-7.7-11.95-17.95-11.95-28.84s4.24-21.14,11.95-28.84l77.63-77.63c7.7-7.7,17.95-11.95,28.84-11.95s21.14,4.24,28.84,11.95h0c7.7,7.7,11.95,17.95,11.95,28.84s-4.24,21.14-11.95,28.84l-77.63,77.63c-7.7,7.7-17.95,11.95-28.84,11.95ZM942.82,829.39c-9.56,0-18.55,3.72-25.31,10.48l-77.63,77.63c-6.76,6.76-10.48,15.75-10.48,25.31s3.72,18.55,10.48,25.31c6.76,6.76,15.75,10.48,25.31,10.48s18.55-3.72,25.31-10.48l77.63-77.63c6.76-6.76,10.48-15.75,10.48-25.31s-3.72-18.55-10.48-25.31h0c-6.76-6.76-15.75-10.48-25.31-10.48Z"/><rect class="cls-1" x="901.5" y="865.71" width="5" height="76.58" transform="translate(-374.45 904) rotate(-45)"/><path class="cls-1" d="M1015.18,983.61c-10.9,0-21.14-4.24-28.84-11.95-7.7-7.7-11.95-17.95-11.95-28.84s4.24-21.14,11.95-28.84l77.63-77.63c7.7-7.7,17.95-11.95,28.84-11.95s21.14,4.24,28.84,11.95h0c7.7,7.7,11.95,17.95,11.95,28.84s-4.24,21.14-11.95,28.84l-77.63,77.63c-7.7,7.7-17.95,11.95-28.84,11.95ZM1092.82,829.39c-9.56,0-18.55,3.72-25.31,10.48l-77.63,77.63c-6.76,6.76-10.48,15.75-10.48,25.31s3.72,18.55,10.48,25.31c6.76,6.76,15.75,10.48,25.31,10.48s18.55-3.72,25.31-10.48l77.63-77.63c6.76-6.76,10.48-15.75,10.48-25.31s-3.72-18.55-10.48-25.31h0c-6.76-6.76-15.75-10.48-25.31-10.48Z"/><rect class="cls-1" x="1051.5" y="865.71" width="5" height="76.58" transform="translate(-330.52 1010.07) rotate(-45)"/><path class="cls-1" d="M1190.49,968.12c-6.76,6.76-15.75,10.48-25.31,10.48s-18.55-3.72-25.31-10.48c-6.76-6.76-10.48-15.75-10.48-25.31s3.72-18.55,10.48-25.31l64.12-64.12v-7.07l-67.66,67.66c-7.7,7.7-11.95,17.95-11.95,28.84s4.24,21.14,11.95,28.84c7.7,7.7,17.95,11.95,28.84,11.95s21.14-4.24,28.84-11.95l9.97-9.97v-7.07l-13.51,13.51Z"/><polygon class="cls-1" points="1178.69 875.16 1175.16 878.69 1204 907.54 1204 900.47 1178.69 875.16"/><path class="cls-1" d="M83.61,1165.18c0-10.9-4.24-21.14-11.95-28.84-7.7-7.7-17.95-11.95-28.84-11.95s-21.14,4.24-28.84,11.95l-9.97,9.97v7.07l13.51-13.51c6.76-6.76,15.75-10.48,25.31-10.48s18.55,3.72,25.31,10.48c6.76,6.76,10.48,15.75,10.48,25.31s-3.72,18.55-10.48,25.31l-13.51,13.51h7.07l9.97-9.97c7.7-7.7,11.95-17.95,11.95-28.84Z"/><polygon class="cls-1" points="4 1204 7.54 1204 4 1200.46 4 1204"/><path class="cls-1" d="M233.61,1165.18c0-10.9-4.24-21.14-11.95-28.84-7.7-7.7-17.95-11.95-28.84-11.95s-21.14,4.24-28.84,11.95l-67.66,67.66h7.07l64.12-64.12c6.76-6.76,15.75-10.48,25.31-10.48s18.55,3.72,25.31,10.48c6.76,6.76,10.48,15.75,10.48,25.31s-3.72,18.55-10.48,25.31l-13.51,13.51h7.07l9.97-9.97c7.7-7.7,11.95-17.95,11.95-28.84Z"/><polygon class="cls-1" points="125.16 1178.69 150.47 1204 157.54 1204 128.69 1175.16 125.16 1178.69"/><path class="cls-1" d="M383.61,1165.18c0-10.9-4.24-21.14-11.95-28.84-7.7-7.7-17.95-11.95-28.84-11.95s-21.14,4.24-28.84,11.95l-67.66,67.66h7.07l64.12-64.12c6.76-6.76,15.75-10.48,25.31-10.48s18.55,3.72,25.31,10.48c6.76,6.76,10.48,15.75,10.48,25.31s-3.72,18.55-10.48,25.31l-13.51,13.51h7.07l9.97-9.97c7.7-7.7,11.95-17.95,11.95-28.84Z"/><polygon class="cls-1" points="275.16 1178.69 300.47 1204 307.54 1204 278.69 1175.16 275.16 1178.69"/><path class="cls-1" d="M533.61,1165.18c0-10.9-4.24-21.14-11.95-28.84-7.7-7.7-17.95-11.95-28.84-11.95s-21.14,4.24-28.84,11.95l-67.66,67.66h7.07l64.12-64.12c6.76-6.76,15.75-10.48,25.31-10.48s18.55,3.72,25.31,10.48c6.76,6.76,10.48,15.75,10.48,25.31s-3.72,18.55-10.48,25.31l-13.51,13.51h7.07l9.97-9.97c7.7-7.7,11.95-17.95,11.95-28.84Z"/><polygon class="cls-1" points="425.16 1178.69 450.47 1204 457.54 1204 428.69 1175.16 425.16 1178.69"/><path class="cls-1" d="M683.61,1165.18c0-10.9-4.24-21.14-11.95-28.84-7.7-7.7-17.95-11.95-28.84-11.95s-21.14,4.24-28.84,11.95l-67.66,67.66h7.07l64.12-64.12c6.76-6.76,15.75-10.48,25.31-10.48s18.55,3.72,25.31,10.48c6.76,6.76,10.48,15.75,10.48,25.31s-3.72,18.55-10.48,25.31l-13.51,13.51h7.07l9.97-9.97c7.7-7.7,11.95-17.95,11.95-28.84Z"/><polygon class="cls-1" points="575.16 1178.69 600.47 1204 607.54 1204 578.69 1175.16 575.16 1178.69"/><path class="cls-1" d="M833.61,1165.18c0-10.9-4.24-21.14-11.95-28.84-7.7-7.7-17.95-11.95-28.84-11.95s-21.14,4.24-28.84,11.95l-67.66,67.66h7.07l64.12-64.12c6.76-6.76,15.75-10.48,25.31-10.48s18.55,3.72,25.31,10.48c6.76,6.76,10.48,15.75,10.48,25.31s-3.72,18.55-10.48,25.31l-13.51,13.51h7.07l9.97-9.97c7.7-7.7,11.95-17.95,11.95-28.84Z"/><polygon class="cls-1" points="725.16 1178.69 750.47 1204 757.54 1204 728.69 1175.16 725.16 1178.69"/><path class="cls-1" d="M983.61,1165.18c0-10.9-4.24-21.14-11.95-28.84-7.7-7.7-17.95-11.95-28.84-11.95s-21.14,4.24-28.84,11.95l-67.66,67.66h7.07l64.12-64.12c6.76-6.76,15.75-10.48,25.31-10.48s18.55,3.72,25.31,10.48c6.76,6.76,10.48,15.75,10.48,25.31s-3.72,18.55-10.48,25.31l-13.51,13.51h7.07l9.97-9.97c7.7-7.7,11.95-17.95,11.95-28.84Z"/><polygon class="cls-1" points="875.16 1178.69 900.47 1204 907.54 1204 878.69 1175.16 875.16 1178.69"/><path class="cls-1" d="M1133.61,1165.18c0-10.9-4.24-21.14-11.95-28.84-7.7-7.7-17.95-11.95-28.84-11.95s-21.14,4.24-28.84,11.95l-67.66,67.66h7.07l64.12-64.12c6.76-6.76,15.75-10.48,25.31-10.48s18.55,3.72,25.31,10.48c6.76,6.76,10.48,15.75,10.48,25.31s-3.72,18.55-10.48,25.31l-13.51,13.51h7.07l9.97-9.97c7.7-7.7,11.95-17.95,11.95-28.84Z"/><polygon class="cls-1" points="1025.16 1178.69 1050.47 1204 1057.54 1204 1028.69 1175.16 1025.16 1178.69"/><polygon class="cls-1" points="1204 1153.38 1204 1146.31 1146.31 1204 1153.38 1204 1204 1153.38"/><polygon class="cls-1" points="1204 1200.46 1178.69 1175.16 1175.16 1178.69 1200.46 1204 1204 1204 1204 1200.46"/><path class="cls-1" d="M91.97,221.66c7.7,7.7,17.95,11.95,28.84,11.95s21.14-4.24,28.84-11.95c7.7-7.7,11.95-17.95,11.95-28.84s-4.24-21.14-11.95-28.84l-77.63-77.63c-7.7-7.7-17.95-11.95-28.84-11.95s-21.14,4.24-28.84,11.95c-4.94,4.94-8.45,10.94-10.34,17.48v22.73c1.89,6.54,5.4,12.53,10.34,17.48l77.63,77.63ZM17.88,89.88c6.76-6.76,15.75-10.48,25.31-10.48s18.55,3.72,25.31,10.48l77.63,77.63c6.76,6.76,10.48,15.75,10.48,25.31s-3.72,18.55-10.48,25.31c-6.76,6.76-15.75,10.48-25.31,10.48s-18.55-3.72-25.31-10.48L17.88,140.49c-6.76-6.76-10.48-15.75-10.48-25.31s3.72-18.55,10.48-25.31Z"/><rect class="cls-1" x="43.71" y="151.5" width="76.58" height="5" transform="translate(-84.88 103.09) rotate(-45)"/><path class="cls-1" d="M270.82,233.61c-10.9,0-21.14-4.24-28.84-11.95l-77.63-77.63c-7.7-7.7-11.95-17.95-11.95-28.84s4.24-21.14,11.95-28.84h0c7.7-7.7,17.95-11.95,28.84-11.95s21.14,4.24,28.84,11.95l77.63,77.63c7.7,7.7,11.95,17.95,11.95,28.84s-4.24,21.14-11.95,28.84c-7.7,7.7-17.95,11.95-28.84,11.95ZM193.18,79.39c-9.56,0-18.55,3.72-25.31,10.48h0c-6.76,6.76-10.48,15.75-10.48,25.31s3.72,18.55,10.48,25.31l77.63,77.63c6.76,6.76,15.75,10.48,25.31,10.48s18.55-3.72,25.31-10.48c6.76-6.76,10.48-15.75,10.48-25.31s-3.72-18.55-10.48-25.31l-77.63-77.63c-6.76-6.76-15.75-10.48-25.31-10.48Z"/><rect class="cls-1" x="193.71" y="151.5" width="76.58" height="5" transform="translate(-40.94 209.15) rotate(-45)"/><path class="cls-1" d="M420.82,233.61c-10.9,0-21.14-4.24-28.84-11.95l-77.63-77.63c-7.7-7.7-11.95-17.95-11.95-28.84s4.24-21.14,11.95-28.84h0c7.7-7.7,17.95-11.95,28.84-11.95s21.14,4.24,28.84,11.95l77.63,77.63c7.7,7.7,11.95,17.95,11.95,28.84s-4.24,21.14-11.95,28.84c-7.7,7.7-17.95,11.95-28.84,11.95ZM343.18,79.39c-9.56,0-18.55,3.72-25.31,10.48h0c-6.76,6.76-10.48,15.75-10.48,25.31s3.72,18.55,10.48,25.31l77.63,77.63c6.76,6.76,15.75,10.48,25.31,10.48s18.55-3.72,25.31-10.48c6.76-6.76,10.48-15.75,10.48-25.31s-3.72-18.55-10.48-25.31l-77.63-77.63c-6.76-6.76-15.75-10.48-25.31-10.48Z"/><rect class="cls-1" x="343.71" y="151.5" width="76.58" height="5" transform="translate(2.99 315.22) rotate(-45)"/><path class="cls-1" d="M570.82,233.61c-10.9,0-21.14-4.24-28.84-11.95l-77.63-77.63c-7.7-7.7-11.95-17.95-11.95-28.84s4.24-21.14,11.95-28.84h0c7.7-7.7,17.95-11.95,28.84-11.95s21.14,4.24,28.84,11.95l77.63,77.63c7.7,7.7,11.95,17.95,11.95,28.84s-4.24,21.14-11.95,28.84c-7.7,7.7-17.95,11.95-28.84,11.95ZM493.18,79.39c-9.56,0-18.55,3.72-25.31,10.48h0c-6.76,6.76-10.48,15.75-10.48,25.31s3.72,18.55,10.48,25.31l77.63,77.63c6.76,6.76,15.75,10.48,25.31,10.48s18.55-3.72,25.31-10.48c6.76-6.76,10.48-15.75,10.48-25.31s-3.72-18.55-10.48-25.31l-77.63-77.63c-6.76-6.76-15.75-10.48-25.31-10.48Z"/><rect class="cls-1" x="493.71" y="151.5" width="76.58" height="5" transform="translate(46.92 421.29) rotate(-45)"/><path class="cls-1" d="M720.82,233.61c-10.9,0-21.14-4.24-28.84-11.95l-77.63-77.63c-7.7-7.7-11.95-17.95-11.95-28.84s4.24-21.14,11.95-28.84h0c7.7-7.7,17.95-11.95,28.84-11.95s21.14,4.24,28.84,11.95l77.63,77.63c7.7,7.7,11.95,17.95,11.95,28.84s-4.24,21.14-11.95,28.84c-7.7,7.7-17.95,11.95-28.84,11.95ZM643.18,79.39c-9.56,0-18.55,3.72-25.31,10.48h0c-6.76,6.76-10.48,15.75-10.48,25.31s3.72,18.55,10.48,25.31l77.63,77.63c6.76,6.76,15.75,10.48,25.31,10.48s18.55-3.72,25.31-10.48c6.76-6.76,10.48-15.75,10.48-25.31s-3.72-18.55-10.48-25.31l-77.63-77.63c-6.76-6.76-15.75-10.48-25.31-10.48Z"/><rect class="cls-1" x="643.71" y="151.5" width="76.58" height="5" transform="translate(90.86 527.35) rotate(-45)"/><path class="cls-1" d="M870.82,233.61c-10.9,0-21.14-4.24-28.84-11.95l-77.63-77.63c-7.7-7.7-11.95-17.95-11.95-28.84s4.24-21.14,11.95-28.84h0c7.7-7.7,17.95-11.95,28.84-11.95s21.14,4.24,28.84,11.95l77.63,77.63c7.7,7.7,11.95,17.95,11.95,28.84s-4.24,21.14-11.95,28.84c-7.7,7.7-17.95,11.95-28.84,11.95ZM793.18,79.39c-9.56,0-18.55,3.72-25.31,10.48h0c-6.76,6.76-10.48,15.75-10.48,25.31s3.72,18.55,10.48,25.31l77.63,77.63c6.76,6.76,15.75,10.48,25.31,10.48s18.55-3.72,25.31-10.48c6.76-6.76,10.48-15.75,10.48-25.31s-3.72-18.55-10.48-25.31l-77.63-77.63c-6.76-6.76-15.75-10.48-25.31-10.48Z"/><rect class="cls-1" x="793.71" y="151.5" width="76.58" height="5" transform="translate(134.79 633.42) rotate(-45)"/><path class="cls-1" d="M1020.82,233.61c-10.9,0-21.14-4.24-28.84-11.95l-77.63-77.63c-7.7-7.7-11.95-17.95-11.95-28.84s4.24-21.14,11.95-28.84h0c7.7-7.7,17.95-11.95,28.84-11.95s21.14,4.24,28.84,11.95l77.63,77.63c7.7,7.7,11.95,17.95,11.95,28.84s-4.24,21.14-11.95,28.84c-7.7,7.7-17.95,11.95-28.84,11.95ZM943.18,79.39c-9.56,0-18.55,3.72-25.31,10.48h0c-6.76,6.76-10.48,15.75-10.48,25.31s3.72,18.55,10.48,25.31l77.63,77.63c6.76,6.76,15.75,10.48,25.31,10.48s18.55-3.72,25.31-10.48c6.76-6.76,10.48-15.75,10.48-25.31s-3.72-18.55-10.48-25.31l-77.63-77.63c-6.76-6.76-15.75-10.48-25.31-10.48Z"/><rect class="cls-1" x="943.71" y="151.5" width="76.58" height="5" transform="translate(178.73 739.48) rotate(-45)"/><path class="cls-1" d="M1122.03,86.34c-7.7-7.7-17.95-11.95-28.84-11.95s-21.14,4.24-28.84,11.95c-7.7,7.7-11.95,17.95-11.95,28.84s4.24,21.14,11.95,28.84l77.63,77.63c7.7,7.7,17.95,11.95,28.84,11.95s21.14-4.24,28.84-11.95c1.6-1.6,3.05-3.32,4.34-5.12v-10.27c-1.78,4.39-4.43,8.42-7.88,11.86-6.76,6.76-15.75,10.48-25.31,10.48s-18.55-3.72-25.31-10.48l-77.63-77.63c-6.76-6.76-10.48-15.75-10.48-25.31s3.72-18.55,10.48-25.31c6.76-6.76,15.75-10.48,25.31-10.48s18.55,3.72,25.31,10.48l77.63,77.63c3.45,3.45,6.1,7.48,7.88,11.86v-10.27c-1.3-1.8-2.74-3.52-4.34-5.12l-77.63-77.63Z"/><rect class="cls-1" x="1093.71" y="151.5" width="76.58" height="5" transform="translate(222.66 845.55) rotate(-45)"/><path class="cls-1" d="M1204,126.47v-22.57c-2.11,7.36-2.11,15.21,0,22.57Z"/><path class="cls-1" d="M4,169.1v10.27c1.71,4.21,2.61,8.76,2.61,13.44s-.9,9.23-2.61,13.44v10.27c4.94-6.87,7.61-15.09,7.61-23.72s-2.67-16.84-7.61-23.72Z"/><path class="cls-1" d="M91.97,521.66c7.7,7.7,17.95,11.95,28.84,11.95s21.14-4.24,28.84-11.95c7.7-7.7,11.95-17.95,11.95-28.84s-4.24-21.14-11.95-28.84l-77.63-77.63c-7.7-7.7-17.95-11.95-28.84-11.95s-21.14,4.24-28.84,11.95c-4.94,4.94-8.45,10.94-10.34,17.48v22.73c1.89,6.54,5.4,12.53,10.34,17.48l77.63,77.63ZM17.88,389.88c6.76-6.76,15.75-10.48,25.31-10.48s18.55,3.72,25.31,10.48l77.63,77.63c6.76,6.76,10.48,15.75,10.48,25.31s-3.72,18.55-10.48,25.31c-6.76,6.76-15.75,10.48-25.31,10.48s-18.55-3.72-25.31-10.48l-77.63-77.63c-6.76-6.76-10.48-15.75-10.48-25.31s3.72-18.55,10.48-25.31Z"/><rect class="cls-1" x="43.71" y="451.5" width="76.58" height="5" transform="translate(-297.01 190.96) rotate(-45)"/><path class="cls-1" d="M270.82,533.61c-10.9,0-21.14-4.24-28.84-11.95l-77.63-77.63c-7.7-7.7-11.95-17.95-11.95-28.84s4.24-21.14,11.95-28.84h0c7.7-7.7,17.95-11.95,28.84-11.95s21.14,4.24,28.84,11.95l77.63,77.63c7.7,7.7,11.95,17.95,11.95,28.84s-4.24,21.14-11.95,28.84c-7.7,7.7-17.95,11.95-28.84,11.95ZM193.18,379.39c-9.56,0-18.55,3.72-25.31,10.48h0c-6.76,6.76-10.48,15.75-10.48,25.31s3.72,18.55,10.48,25.31l77.63,77.63c6.76,6.76,15.75,10.48,25.31,10.48s18.55-3.72,25.31-10.48c6.76-6.76,10.48-15.75,10.48-25.31s-3.72-18.55-10.48-25.31l-77.63-77.63c-6.76-6.76-15.75-10.48-25.31-10.48Z"/><rect class="cls-1" x="193.71" y="451.5" width="76.58" height="5" transform="translate(-253.08 297.02) rotate(-45)"/><path class="cls-1" d="M420.82,533.61c-10.9,0-21.14-4.24-28.84-11.95l-77.63-77.63c-7.7-7.7-11.95-17.95-11.95-28.84s4.24-21.14,11.95-28.84h0c7.7-7.7,17.95-11.95,28.84-11.95s21.14,4.24,28.84,11.95l77.63,77.63c7.7,7.7,11.95,17.95,11.95,28.84s-4.24,21.14-11.95,28.84c-7.7,7.7-17.95,11.95-28.84,11.95ZM343.18,379.39c-9.56,0-18.55,3.72-25.31,10.48h0c-6.76,6.76-10.48,15.75-10.48,25.31s3.72,18.55,10.48,25.31l77.63,77.63c6.76,6.76,15.75,10.48,25.31,10.48s18.55-3.72,25.31-10.48c6.76-6.76,10.48-15.75,10.48-25.31s-3.72-18.55-10.48-25.31l-77.63-77.63c-6.76-6.76-15.75-10.48-25.31-10.48Z"/><rect class="cls-1" x="343.71" y="451.5" width="76.58" height="5" transform="translate(-209.14 403.09) rotate(-45)"/><path class="cls-1" d="M570.82,533.61c-10.9,0-21.14-4.24-28.84-11.95l-77.63-77.63c-7.7-7.7-11.95-17.95-11.95-28.84s4.24-21.14,11.95-28.84h0c7.7-7.7,17.95-11.95,28.84-11.95s21.14,4.24,28.84,11.95l77.63,77.63c7.7,7.7,11.95,17.95,11.95,28.84s-4.24,21.14-11.95,28.84c-7.7,7.7-17.95,11.95-28.84,11.95ZM493.18,379.39c-9.56,0-18.55,3.72-25.31,10.48h0c-6.76,6.76-10.48,15.75-10.48,25.31s3.72,18.55,10.48,25.31l77.63,77.63c6.76,6.76,15.75,10.48,25.31,10.48s18.55-3.72,25.31-10.48c6.76-6.76,10.48-15.75,10.48-25.31s-3.72-18.55-10.48-25.31l-77.63-77.63c-6.76-6.76-15.75-10.48-25.31-10.48Z"/><rect class="cls-1" x="493.71" y="451.5" width="76.58" height="5" transform="translate(-165.21 509.15) rotate(-45)"/><path class="cls-1" d="M720.82,533.61c-10.9,0-21.14-4.24-28.84-11.95l-77.63-77.63c-7.7-7.7-11.95-17.95-11.95-28.84s4.24-21.14,11.95-28.84h0c7.7-7.7,17.95-11.95,28.84-11.95s21.14,4.24,28.84,11.95l77.63,77.63c7.7,7.7,11.95,17.95,11.95,28.84s-4.24,21.14-11.95,28.84c-7.7,7.7-17.95,11.95-28.84,11.95ZM643.18,379.39c-9.56,0-18.55,3.72-25.31,10.48h0c-6.76,6.76-10.48,15.75-10.48,25.31s3.72,18.55,10.48,25.31l77.63,77.63c6.76,6.76,15.75,10.48,25.31,10.48s18.55-3.72,25.31-10.48c6.76-6.76,10.48-15.75,10.48-25.31s-3.72-18.55-10.48-25.31l-77.63-77.63c-6.76-6.76-15.75-10.48-25.31-10.48Z"/><rect class="cls-1" x="643.71" y="451.5" width="76.58" height="5" transform="translate(-121.27 615.22) rotate(-45)"/><path class="cls-1" d="M870.82,533.61c-10.9,0-21.14-4.24-28.84-11.95l-77.63-77.63c-7.7-7.7-11.95-17.95-11.95-28.84s4.24-21.14,11.95-28.84h0c7.7-7.7,17.95-11.95,28.84-11.95s21.14,4.24,28.84,11.95l77.63,77.63c7.7,7.7,11.95,17.95,11.95,28.84s-4.24,21.14-11.95,28.84c-7.7,7.7-17.95,11.95-28.84,11.95ZM793.18,379.39c-9.56,0-18.55,3.72-25.31,10.48h0c-6.76,6.76-10.48,15.75-10.48,25.31s3.72,18.55,10.48,25.31l77.63,77.63c6.76,6.76,15.75,10.48,25.31,10.48s18.55-3.72,25.31-10.48c6.76-6.76,10.48-15.75,10.48-25.31s-3.72-18.55-10.48-25.31l-77.63-77.63c-6.76-6.76-15.75-10.48-25.31-10.48Z"/><rect class="cls-1" x="793.71" y="451.5" width="76.58" height="5" transform="translate(-77.34 721.29) rotate(-45)"/><path class="cls-1" d="M1020.82,533.61c-10.9,0-21.14-4.24-28.84-11.95l-77.63-77.63c-7.7-7.7-11.95-17.95-11.95-28.84s4.24-21.14,11.95-28.84h0c7.7-7.7,17.95-11.95,28.84-11.95s21.14,4.24,28.84,11.95l77.63,77.63c7.7,7.7,11.95,17.95,11.95,28.84s-4.24,21.14-11.95,28.84c-7.7,7.7-17.95,11.95-28.84,11.95ZM943.18,379.39c-9.56,0-18.55,3.72-25.31,10.48h0c-6.76,6.76-10.48,15.75-10.48,25.31s3.72,18.55,10.48,25.31l77.63,77.63c6.76,6.76,15.75,10.48,25.31,10.48s18.55-3.72,25.31-10.48c6.76-6.76,10.48-15.75,10.48-25.31s-3.72-18.55-10.48-25.31l-77.63-77.63c-6.76-6.76-15.75-10.48-25.31-10.48Z"/><rect class="cls-1" x="943.71" y="451.5" width="76.58" height="5" transform="translate(-33.41 827.35) rotate(-45)"/><path class="cls-1" d="M1122.03,386.34c-7.7-7.7-17.95-11.95-28.84-11.95s-21.14,4.24-28.84,11.95c-7.7,7.7-11.95,17.95-11.95,28.84s4.24,21.14,11.95,28.84l77.63,77.63c7.7,7.7,17.95,11.95,28.84,11.95s21.14-4.24,28.84-11.95c1.6-1.6,3.05-3.32,4.34-5.12v-10.27c-1.78,4.39-4.43,8.42-7.88,11.86-6.76,6.76-15.75,10.48-25.31,10.48s-18.55-3.72-25.31-10.48l-77.63-77.63c-6.76-6.76-10.48-15.75-10.48-25.31s3.72-18.55,10.48-25.31c6.76-6.76,15.75-10.48,25.31-10.48s18.55,3.72,25.31,10.48l77.63,77.63c3.45,3.45,6.1,7.48,7.88,11.86v-10.27c-1.3-1.8-2.74-3.52-4.34-5.12l-77.63-77.63Z"/><rect class="cls-1" x="1093.71" y="451.5" width="76.58" height="5" transform="translate(10.53 933.42) rotate(-45)"/><path class="cls-1" d="M1204,426.47v-22.57c-2.11,7.36-2.11,15.21,0,22.57Z"/><path class="cls-1" d="M4,469.1v10.27c1.71,4.21,2.61,8.76,2.61,13.44s-.9,9.23-2.61,13.44v10.27c4.94-6.87,7.61-15.09,7.61-23.72s-2.67-16.84-7.61-23.72Z"/><path class="cls-1" d="M91.97,821.66c7.7,7.7,17.95,11.95,28.84,11.95s21.14-4.24,28.84-11.95c7.7-7.7,11.95-17.95,11.95-28.84s-4.24-21.14-11.95-28.84l-77.63-77.63c-7.7-7.7-17.95-11.95-28.84-11.95s-21.14,4.24-28.84,11.95c-4.94,4.94-8.45,10.94-10.34,17.48v22.73c1.89,6.54,5.4,12.53,10.34,17.48l77.63,77.63ZM17.88,689.88c6.76-6.76,15.75-10.48,25.31-10.48s18.55,3.72,25.31,10.48l77.63,77.63c6.76,6.76,10.48,15.75,10.48,25.31s-3.72,18.55-10.48,25.31c-6.76,6.76-15.75,10.48-25.31,10.48s-18.55-3.72-25.31-10.48l-77.63-77.63c-6.76-6.76-10.48-15.75-10.48-25.31s3.72-18.55,10.48-25.31Z"/><rect class="cls-1" x="43.71" y="751.5" width="76.58" height="5" transform="translate(-509.14 278.82) rotate(-45)"/><path class="cls-1" d="M270.82,833.61c-10.9,0-21.14-4.24-28.84-11.95l-77.63-77.63c-7.7-7.7-11.95-17.95-11.95-28.84s4.24-21.14,11.95-28.84h0c7.7-7.7,17.95-11.95,28.84-11.95s21.14,4.24,28.84,11.95l77.63,77.63c7.7,7.7,11.95,17.95,11.95,28.84s-4.24,21.14-11.95,28.84c-7.7,7.7-17.95,11.95-28.84,11.95ZM193.18,679.39c-9.56,0-18.55,3.72-25.31,10.48h0c-6.76,6.76-10.48,15.75-10.48,25.31s3.72,18.55,10.48,25.31l77.63,77.63c6.76,6.76,15.75,10.48,25.31,10.48s18.55-3.72,25.31-10.48c6.76-6.76,10.48-15.75,10.48-25.31s-3.72-18.55-10.48-25.31l-77.63-77.63c-6.76-6.76-15.75-10.48-25.31-10.48Z"/><rect class="cls-1" x="193.71" y="751.5" width="76.58" height="5" transform="translate(-465.21 384.89) rotate(-45)"/><path class="cls-1" d="M420.82,833.61c-10.9,0-21.14-4.24-28.84-11.95l-77.63-77.63c-7.7-7.7-11.95-17.95-11.95-28.84s4.24-21.14,11.95-28.84h0c7.7-7.7,17.95-11.95,28.84-11.95s21.14,4.24,28.84,11.95l77.63,77.63c7.7,7.7,11.95,17.95,11.95,28.84s-4.24,21.14-11.95,28.84c-7.7,7.7-17.95,11.95-28.84,11.95ZM343.18,679.39c-9.56,0-18.55,3.72-25.31,10.48h0c-6.76,6.76-10.48,15.75-10.48,25.31s3.72,18.55,10.48,25.31l77.63,77.63c6.76,6.76,15.75,10.48,25.31,10.48s18.55-3.72,25.31-10.48c6.76-6.76,10.48-15.75,10.48-25.31s-3.72-18.55-10.48-25.31l-77.63-77.63c-6.76-6.76-15.75-10.48-25.31-10.48Z"/><rect class="cls-1" x="343.71" y="751.5" width="76.58" height="5" transform="translate(-421.27 490.96) rotate(-45)"/><path class="cls-1" d="M570.82,833.61c-10.9,0-21.14-4.24-28.84-11.95l-77.63-77.63c-7.7-7.7-11.95-17.95-11.95-28.84s4.24-21.14,11.95-28.84h0c7.7-7.7,17.95-11.95,28.84-11.95s21.14,4.24,28.84,11.95l77.63,77.63c7.7,7.7,11.95,17.95,11.95,28.84s-4.24,21.14-11.95,28.84c-7.7,7.7-17.95,11.95-28.84,11.95ZM493.18,679.39c-9.56,0-18.55,3.72-25.31,10.48h0c-6.76,6.76-10.48,15.75-10.48,25.31s3.72,18.55,10.48,25.31l77.63,77.63c6.76,6.76,15.75,10.48,25.31,10.48s18.55-3.72,25.31-10.48c6.76-6.76,10.48-15.75,10.48-25.31s-3.72-18.55-10.48-25.31l-77.63-77.63c-6.76-6.76-15.75-10.48-25.31-10.48Z"/><rect class="cls-1" x="493.71" y="751.5" width="76.58" height="5" transform="translate(-377.34 597.02) rotate(-45)"/><path class="cls-1" d="M720.82,833.61c-10.9,0-21.14-4.24-28.84-11.95l-77.63-77.63c-7.7-7.7-11.95-17.95-11.95-28.84s4.24-21.14,11.95-28.84h0c7.7-7.7,17.95-11.95,28.84-11.95s21.14,4.24,28.84,11.95l77.63,77.63c7.7,7.7,11.95,17.95,11.95,28.84s-4.24,21.14-11.95,28.84c-7.7,7.7-17.95,11.95-28.84,11.95ZM643.18,679.39c-9.56,0-18.55,3.72-25.31,10.48h0c-6.76,6.76-10.48,15.75-10.48,25.31s3.72,18.55,10.48,25.31l77.63,77.63c6.76,6.76,15.75,10.48,25.31,10.48s18.55-3.72,25.31-10.48c6.76-6.76,10.48-15.75,10.48-25.31s-3.72-18.55-10.48-25.31l-77.63-77.63c-6.76-6.76-15.75-10.48-25.31-10.48Z"/><rect class="cls-1" x="643.71" y="751.5" width="76.58" height="5" transform="translate(-333.41 703.09) rotate(-45)"/><path class="cls-1" d="M870.82,833.61c-10.9,0-21.14-4.24-28.84-11.95l-77.63-77.63c-7.7-7.7-11.95-17.95-11.95-28.84s4.24-21.14,11.95-28.84h0c7.7-7.7,17.95-11.95,28.84-11.95s21.14,4.24,28.84,11.95l77.63,77.63c7.7,7.7,11.95,17.95,11.95,28.84s-4.24,21.14-11.95,28.84c-7.7,7.7-17.95,11.95-28.84,11.95ZM793.18,679.39c-9.56,0-18.55,3.72-25.31,10.48h0c-6.76,6.76-10.48,15.75-10.48,25.31s3.72,18.55,10.48,25.31l77.63,77.63c6.76,6.76,15.75,10.48,25.31,10.48s18.55-3.72,25.31-10.48c6.76-6.76,10.48-15.75,10.48-25.31s-3.72-18.55-10.48-25.31l-77.63-77.63c-6.76-6.76-15.75-10.48-25.31-10.48Z"/><rect class="cls-1" x="793.71" y="751.5" width="76.58" height="5" transform="translate(-289.47 809.15) rotate(-45)"/><path class="cls-1" d="M1020.82,833.61c-10.9,0-21.14-4.24-28.84-11.95l-77.63-77.63c-7.7-7.7-11.95-17.95-11.95-28.84s4.24-21.14,11.95-28.84h0c7.7-7.7,17.95-11.95,28.84-11.95s21.14,4.24,28.84,11.95l77.63,77.63c7.7,7.7,11.95,17.95,11.95,28.84s-4.24,21.14-11.95,28.84c-7.7,7.7-17.95,11.95-28.84,11.95ZM943.18,679.39c-9.56,0-18.55,3.72-25.31,10.48h0c-6.76,6.76-10.48,15.75-10.48,25.31s3.72,18.55,10.48,25.31l77.63,77.63c6.76,6.76,15.75,10.48,25.31,10.48s18.55-3.72,25.31-10.48c6.76-6.76,10.48-15.75,10.48-25.31s-3.72-18.55-10.48-25.31l-77.63-77.63c-6.76-6.76-15.75-10.48-25.31-10.48Z"/><rect class="cls-1" x="943.71" y="751.5" width="76.58" height="5" transform="translate(-245.54 915.22) rotate(-45)"/><path class="cls-1" d="M1122.03,686.34c-7.7-7.7-17.95-11.95-28.84-11.95s-21.14,4.24-28.84,11.95c-7.7,7.7-11.95,17.95-11.95,28.84s4.24,21.14,11.95,28.84l77.63,77.63c7.7,7.7,17.95,11.95,28.84,11.95s21.14-4.24,28.84-11.95c1.6-1.6,3.05-3.32,4.34-5.12v-10.27c-1.78,4.39-4.43,8.42-7.88,11.86-6.76,6.76-15.75,10.48-25.31,10.48s-18.55-3.72-25.31-10.48l-77.63-77.63c-6.76-6.76-10.48-15.75-10.48-25.31s3.72-18.55,10.48-25.31c6.76-6.76,15.75-10.48,25.31-10.48s18.55,3.72,25.31,10.48l77.63,77.63c3.45,3.45,6.1,7.48,7.88,11.86v-10.27c-1.3-1.8-2.74-3.52-4.34-5.12l-77.63-77.63Z"/><rect class="cls-1" x="1093.71" y="751.5" width="76.58" height="5" transform="translate(-201.6 1021.29) rotate(-45)"/><path class="cls-1" d="M1204,726.47v-22.57c-2.11,7.36-2.11,15.21,0,22.57Z"/><path class="cls-1" d="M4,769.1v10.27c1.71,4.21,2.61,8.76,2.61,13.44s-.9,9.23-2.61,13.44v10.27c4.94-6.87,7.61-15.09,7.61-23.72s-2.67-16.84-7.61-23.72Z"/><path class="cls-1" d="M91.97,1121.66c7.7,7.7,17.95,11.95,28.84,11.95s21.14-4.24,28.84-11.95c7.7-7.7,11.95-17.95,11.95-28.84s-4.24-21.14-11.95-28.84l-77.63-77.63c-7.7-7.7-17.95-11.95-28.84-11.95s-21.14,4.24-28.84,11.95c-4.94,4.94-8.45,10.94-10.34,17.48v22.73c1.89,6.54,5.4,12.53,10.34,17.48l77.63,77.63ZM17.88,989.88c6.76-6.76,15.75-10.48,25.31-10.48s18.55,3.72,25.31,10.48l77.63,77.63c6.76,6.76,10.48,15.75,10.48,25.31s-3.72,18.55-10.48,25.31c-6.76,6.76-15.75,10.48-25.31,10.48s-18.55-3.72-25.31-10.48l-77.63-77.63c-6.76-6.76-10.48-15.75-10.48-25.31s3.72-18.55,10.48-25.31Z"/><rect class="cls-1" x="43.71" y="1051.5" width="76.58" height="5" transform="translate(-721.27 366.69) rotate(-45)"/><path class="cls-1" d="M270.82,1133.61c-10.9,0-21.14-4.24-28.84-11.95l-77.63-77.63c-7.7-7.7-11.95-17.95-11.95-28.84s4.24-21.14,11.95-28.84h0c7.7-7.7,17.95-11.95,28.84-11.95s21.14,4.24,28.84,11.95l77.63,77.63c7.7,7.7,11.95,17.95,11.95,28.84s-4.24,21.14-11.95,28.84c-7.7,7.7-17.95,11.95-28.84,11.95ZM193.18,979.39c-9.56,0-18.55,3.72-25.31,10.48h0c-6.76,6.76-10.48,15.75-10.48,25.31s3.72,18.55,10.48,25.31l77.63,77.63c6.76,6.76,15.75,10.48,25.31,10.48s18.55-3.72,25.31-10.48c6.76-6.76,10.48-15.75,10.48-25.31s-3.72-18.55-10.48-25.31l-77.63-77.63c-6.76-6.76-15.75-10.48-25.31-10.48Z"/><rect class="cls-1" x="193.71" y="1051.5" width="76.58" height="5" transform="translate(-677.34 472.76) rotate(-45)"/><path class="cls-1" d="M420.82,1133.61c-10.9,0-21.14-4.24-28.84-11.95l-77.63-77.63c-7.7-7.7-11.95-17.95-11.95-28.84s4.24-21.14,11.95-28.84h0c7.7-7.7,17.95-11.95,28.84-11.95s21.14,4.24,28.84,11.95l77.63,77.63c7.7,7.7,11.95,17.95,11.95,28.84s-4.24,21.14-11.95,28.84c-7.7,7.7-17.95,11.95-28.84,11.95ZM343.18,979.39c-9.56,0-18.55,3.72-25.31,10.48h0c-6.76,6.76-10.48,15.75-10.48,25.31s3.72,18.55,10.48,25.31l77.63,77.63c6.76,6.76,15.75,10.48,25.31,10.48s18.55-3.72,25.31-10.48c6.76-6.76,10.48-15.75,10.48-25.31s-3.72-18.55-10.48-25.31l-77.63-77.63c-6.76-6.76-15.75-10.48-25.31-10.48Z"/><rect class="cls-1" x="343.71" y="1051.5" width="76.58" height="5" transform="translate(-633.41 578.82) rotate(-45)"/><path class="cls-1" d="M570.82,1133.61c-10.9,0-21.14-4.24-28.84-11.95l-77.63-77.63c-7.7-7.7-11.95-17.95-11.95-28.84s4.24-21.14,11.95-28.84h0c7.7-7.7,17.95-11.95,28.84-11.95s21.14,4.24,28.84,11.95l77.63,77.63c7.7,7.7,11.95,17.95,11.95,28.84s-4.24,21.14-11.95,28.84c-7.7,7.7-17.95,11.95-28.84,11.95ZM493.18,979.39c-9.56,0-18.55,3.72-25.31,10.48h0c-6.76,6.76-10.48,15.75-10.48,25.31s3.72,18.55,10.48,25.31l77.63,77.63c6.76,6.76,15.75,10.48,25.31,10.48s18.55-3.72,25.31-10.48c6.76-6.76,10.48-15.75,10.48-25.31s-3.72-18.55-10.48-25.31l-77.63-77.63c-6.76-6.76-15.75-10.48-25.31-10.48Z"/><rect class="cls-1" x="493.71" y="1051.5" width="76.58" height="5" transform="translate(-589.47 684.89) rotate(-45)"/><path class="cls-1" d="M720.82,1133.61c-10.9,0-21.14-4.24-28.84-11.95l-77.63-77.63c-7.7-7.7-11.95-17.95-11.95-28.84s4.24-21.14,11.95-28.84h0c7.7-7.7,17.95-11.95,28.84-11.95s21.14,4.24,28.84,11.95l77.63,77.63c7.7,7.7,11.95,17.95,11.95,28.84s-4.24,21.14-11.95,28.84c-7.7,7.7-17.95,11.95-28.84,11.95ZM643.18,979.39c-9.56,0-18.55,3.72-25.31,10.48h0c-6.76,6.76-10.48,15.75-10.48,25.31s3.72,18.55,10.48,25.31l77.63,77.63c6.76,6.76,15.75,10.48,25.31,10.48s18.55-3.72,25.31-10.48c6.76-6.76,10.48-15.75,10.48-25.31s-3.72-18.55-10.48-25.31l-77.63-77.63c-6.76-6.76-15.75-10.48-25.31-10.48Z"/><rect class="cls-1" x="643.71" y="1051.5" width="76.58" height="5" transform="translate(-545.54 790.96) rotate(-45)"/><path class="cls-1" d="M870.82,1133.61c-10.9,0-21.14-4.24-28.84-11.95l-77.63-77.63c-7.7-7.7-11.95-17.95-11.95-28.84s4.24-21.14,11.95-28.84h0c7.7-7.7,17.95-11.95,28.84-11.95s21.14,4.24,28.84,11.95l77.63,77.63c7.7,7.7,11.95,17.95,11.95,28.84s-4.24,21.14-11.95,28.84c-7.7,7.7-17.95,11.95-28.84,11.95ZM793.18,979.39c-9.56,0-18.55,3.72-25.31,10.48h0c-6.76,6.76-10.48,15.75-10.48,25.31s3.72,18.55,10.48,25.31l77.63,77.63c6.76,6.76,15.75,10.48,25.31,10.48s18.55-3.72,25.31-10.48c6.76-6.76,10.48-15.75,10.48-25.31s-3.72-18.55-10.48-25.31l-77.63-77.63c-6.76-6.76-15.75-10.48-25.31-10.48Z"/><rect class="cls-1" x="793.71" y="1051.5" width="76.58" height="5" transform="translate(-501.6 897.02) rotate(-45)"/><path class="cls-1" d="M1020.82,1133.61c-10.9,0-21.14-4.24-28.84-11.95l-77.63-77.63c-7.7-7.7-11.95-17.95-11.95-28.84s4.24-21.14,11.95-28.84h0c7.7-7.7,17.95-11.95,28.84-11.95s21.14,4.24,28.84,11.95l77.63,77.63c7.7,7.7,11.95,17.95,11.95,28.84s-4.24,21.14-11.95,28.84c-7.7,7.7-17.95,11.95-28.84,11.95ZM943.18,979.39c-9.56,0-18.55,3.72-25.31,10.48h0c-6.76,6.76-10.48,15.75-10.48,25.31s3.72,18.55,10.48,25.31l77.63,77.63c6.76,6.76,15.75,10.48,25.31,10.48s18.55-3.72,25.31-10.48c6.76-6.76,10.48-15.75,10.48-25.31s-3.72-18.55-10.48-25.31l-77.63-77.63c-6.76-6.76-15.75-10.48-25.31-10.48Z"/><rect class="cls-1" x="943.71" y="1051.5" width="76.58" height="5" transform="translate(-457.67 1003.09) rotate(-45)"/><path class="cls-1" d="M1122.03,986.34c-7.7-7.7-17.95-11.95-28.84-11.95s-21.14,4.24-28.84,11.95c-7.7,7.7-11.95,17.95-11.95,28.84s4.24,21.14,11.95,28.84l77.63,77.63c7.7,7.7,17.95,11.95,28.84,11.95s21.14-4.24,28.84-11.95c1.6-1.6,3.05-3.32,4.34-5.12v-10.27c-1.78,4.39-4.43,8.42-7.88,11.86-6.76,6.76-15.75,10.48-25.31,10.48s-18.55-3.72-25.31-10.48l-77.63-77.63c-6.76-6.76-10.48-15.75-10.48-25.31s3.72-18.55,10.48-25.31c6.76-6.76,15.75-10.48,25.31-10.48s18.55,3.72,25.31,10.48l77.63,77.63c3.45,3.45,6.1,7.48,7.88,11.86v-10.27c-1.3-1.8-2.74-3.52-4.34-5.12l-77.63-77.63Z"/><rect class="cls-1" x="1093.71" y="1051.5" width="76.58" height="5" transform="translate(-413.74 1109.15) rotate(-45)"/><path class="cls-1" d="M1204,1026.47v-22.57c-2.11,7.36-2.11,15.21,0,22.57Z"/><path class="cls-1" d="M4,1069.1v10.27c1.71,4.21,2.61,8.76,2.61,13.44s-.9,9.23-2.61,13.44v10.27c4.94-6.87,7.61-15.09,7.61-23.72s-2.67-16.84-7.61-23.72Z"/><polygon class="cls-1" points="54.62 4 4 54.62 4 61.69 61.69 4 54.62 4"/><polygon class="cls-1" points="32.84 29.31 7.54 4 4 4 4 7.54 29.31 32.84 32.84 29.31"/></g></svg>