<?xml version="1.0" encoding="UTF-8"?><svg id="Layer_2" xmlns="http://www.w3.org/2000/svg" xmlns:xlink="http://www.w3.org/1999/xlink" viewBox="0 0 316.48 71.34"><defs><style>.cls-1{fill:none;}.cls-2{fill:#716678;}.cls-3{fill:#f7f1f5;}.cls-4{clip-path:url(#clippath);}</style><clipPath id="clippath"><rect class="cls-1" width="316.48" height="71.34"/></clipPath></defs><g id="Layer_1-2"><g class="cls-4"><path class="cls-2" d="M301.48,20.97H68.17C62.56,8.6,50.13,0,35.67,0,15.97,0,0,15.97,0,35.67s15.97,35.67,35.67,35.67c14.22,0,26.5-8.33,32.23-20.37h233.59c8.28,0,15-6.72,15-15s-6.72-15-15-15"/><path class="cls-3" d="M301.06,33.97H51.42c-.85-8.43-7.96-15-16.62-15-9.22,0-16.7,7.48-16.7,16.7s7.48,16.7,16.7,16.7c8.44,0,15.4-6.27,16.52-14.4h249.73c1.1,0,2-.9,2-2s-.9-2-2-2"/></g></g></svg>