<?xml version="1.0" encoding="UTF-8"?><svg id="Layer_2" xmlns="http://www.w3.org/2000/svg" viewBox="0 0 454.55 454.55"><defs><style>.cls-1{fill:#b8dedc;}</style></defs><g id="Layer_1-2"><path class="cls-1" d="M454.55,76.04v-1.75h-73.3V0h-1.75v74.29h-74.55V0h-1.75v74.29h-74.55V0h-1.75v74.29h-74.55V0h-1.75v74.29h-74.55V0h-1.75v74.29H0v1.75h74.29v74.55H0v1.75h74.29v74.55H0v1.75h74.29v74.55H0v1.75h74.29v74.55H0v1.75h74.29v73.3h1.75v-73.3h74.55v73.3h1.75v-73.3h74.55v73.3h1.75v-73.3h74.55v73.3h1.75v-73.3h74.55v73.3h1.75v-73.3h73.3v-1.75h-73.3v-74.55h73.3v-1.75h-73.3v-74.55h73.3v-1.75h-73.3v-74.55h73.3v-1.75h-73.3v-74.55h73.3ZM150.59,304.95v74.55h-74.55v-74.55h74.55ZM150.59,228.64v74.55h-74.55v-74.55h74.55ZM150.59,152.34v74.55h-74.55v-74.55h74.55ZM76.04,150.59v-74.55h74.55v74.55h-74.55ZM226.89,304.95v74.55h-74.55v-74.55h74.55ZM226.89,228.64v74.55h-74.55v-74.55h74.55ZM226.89,152.34v74.55h-74.55v-74.55h74.55ZM152.34,150.59v-74.55h74.55v74.55h-74.55ZM303.2,304.95v74.55h-74.55v-74.55h74.55ZM303.2,228.64v74.55h-74.55v-74.55h74.55ZM303.2,152.34v74.55h-74.55v-74.55h74.55ZM228.64,150.59v-74.55h74.55v74.55h-74.55ZM379.5,304.95v74.55h-74.55v-74.55h74.55ZM379.5,228.64v74.55h-74.55v-74.55h74.55ZM379.5,152.34v74.55h-74.55v-74.55h74.55ZM304.95,150.59v-74.55h74.55v74.55h-74.55Z"/></g></svg>