<?xml version="1.0" encoding="UTF-8"?><svg id="Layer_2" xmlns="http://www.w3.org/2000/svg" viewBox="0 0 652.92 619.52"><defs><style>.cls-1{fill:#716678;}.cls-2{fill:#f7f1f5;}</style></defs><g id="Layer_1-2"><path class="cls-1" d="M91.87,75.45c58.46.58,80.93,19.58,80.93,58.46,0,42.91-30.24,65.95-86.69,65.95-34.27,0-60.48-8.35-78.05-24.77-4.9-4.32-8.06-10.94-8.06-19.01,0-14.11,9.5-24.19,23.33-24.19,8.35,0,13.82,3.17,18.72,6.91,12.67,10.37,27.65,14.98,46.94,14.98,21.31,0,31.1-5.47,31.1-17.28,0-8.64-8.06-12.96-37.15-13.25C25.06,122.69,2.88,104.25,2.88,65.95,2.88,25.06,35.71,0,88.99,0c25.34,0,46.08,5.47,63.36,16.7,7.49,4.9,12.1,12.38,12.1,22.46,0,14.11-9.5,24.19-23.33,24.19-7.49,0-12.96-3.17-17.86-6.34-11.81-7.49-24.19-10.94-38.59-10.94-18.14,0-29.09,6.34-29.09,16.7,0,8.06,8.35,12.38,36.29,12.67Z"/><path class="cls-1" d="M357.11,152.92c4.32,4.9,6.91,11.23,6.91,18.14,0,16.7-10.37,27.07-26.5,27.07-8.06,0-14.4-3.46-20.74-10.66l-53.57-63.36-18.14,15.26v30.53c0,17.57-10.08,28.22-26.5,28.22s-26.5-10.66-26.5-28.22V29.95c0-17.57,10.08-28.22,26.5-28.22s26.5,10.66,26.5,28.22v45.5L317.95,8.93c4.61-4.32,10.66-7.2,17.86-7.2,15.55,0,25.92,10.08,25.92,25.63,0,9.5-3.46,16.42-9.5,21.31l-49.82,42.05,54.72,62.21Z"/><path class="cls-1" d="M434.3,29.95v139.97c0,17.57-10.08,28.22-26.5,28.22s-26.5-10.66-26.5-28.22V29.95c0-17.57,10.08-28.22,26.5-28.22s26.5,10.66,26.5,28.22Z"/><path class="cls-1" d="M645.11,29.38v136.51c0,19.58-12.1,32.26-30.24,32.26-11.52,0-22.46-3.46-31.39-15.84l-69.12-97.34h-.58v85.53c0,17.28-9.79,27.65-25.92,27.65s-25.92-10.37-25.92-27.65V33.98c0-19.58,12.1-32.26,30.24-32.26,12.96,0,22.46,4.9,30.53,15.84l69.98,97.34h.58V29.38c0-17.28,9.79-27.65,25.92-27.65s25.92,10.37,25.92,27.65Z"/><path class="cls-2" d="M110.92,305.25c21.6,4.08,32.4,17.52,32.4,39.6,0,27.84-16.8,42-49.92,42H10.11c-2.16,0-3.36-1.2-3.36-3.36v-154.08c0-2.16,1.2-3.36,3.36-3.36h78.72c33.12,0,49.92,13.68,49.92,41.04,0,20.16-9.36,32.64-27.84,37.68v.48ZM89.08,302.85c29.28,0,44.16-12,44.16-35.76s-14.88-35.76-44.16-35.76H12.51v71.52h76.56ZM93.39,381.57c29.28,0,44.16-12.24,44.16-36.72s-14.88-36.72-44.16-36.72H12.51v73.44h80.88Z"/><path class="cls-2" d="M243.15,223.17c48.72,0,82.08,33.84,82.08,83.28s-33.36,83.28-82.08,83.28-82.08-33.84-82.08-83.28,33.36-83.28,82.08-83.28ZM243.15,384.45c45.36,0,76.32-31.68,76.32-78s-30.96-78-76.32-78-76.32,31.68-76.32,78,30.96,78,76.32,78Z"/><path class="cls-2" d="M489.39,227.97v156.96c0,2.16-.96,3.36-2.88,3.36-1.44,0-2.16-.48-2.88-1.2l-125.04-151.68h-.48v149.52c0,2.16-.96,3.36-2.88,3.36s-2.88-1.2-2.88-3.36v-156.72c0-2.4.96-3.6,3.12-3.6,1.2,0,1.92.48,2.88,1.44l124.8,151.44h.48v-149.52c0-2.16.96-3.36,2.88-3.36s2.88,1.2,2.88,3.36Z"/><path class="cls-2" d="M649.71,381.57c1.92,0,3.12.96,3.12,2.64s-1.2,2.64-3.12,2.64h-121.92c-2.16,0-3.36-1.2-3.36-3.36v-154.08c0-2.16,1.2-3.36,3.36-3.36h121.92c1.92,0,3.12.96,3.12,2.64s-1.2,2.64-3.12,2.64h-119.52v71.52h101.76c1.92,0,3.12.96,3.12,2.64s-1.2,2.64-3.12,2.64h-101.76v73.44h119.52Z"/><path class="cls-1" d="M134.48,510.65c0-27.65-13.82-42.62-39.17-42.62s-39.17,14.98-39.17,42.62v8.35h78.33v-8.35ZM187.48,512.96v76.61c0,17.57-10.08,28.22-26.5,28.22s-26.5-10.65-26.5-28.22v-25.63H56.15v26.21c0,17.28-9.79,27.65-25.92,27.65s-25.92-10.37-25.92-27.65v-77.18c0-59.33,33.41-93.31,91.58-93.31s91.58,33.98,91.58,93.31"/><path class="cls-1" d="M376.53,570.85c4.32,4.9,6.91,11.81,6.91,18.72,0,16.7-10.95,26.5-26.5,26.5-8.64,0-15.84-4.32-20.74-10.37l-43.2-55.01-44.06,55.87c-4.61,5.76-11.52,9.5-19.87,9.5-15.55,0-25.92-10.08-25.92-25.63,0-6.91,2.59-13.54,6.62-18.43l47.23-55.01-44.64-52.13c-4.32-4.9-6.91-11.81-6.91-18.72,0-16.7,10.94-26.5,26.49-26.5,8.64,0,15.84,4.32,20.74,10.37l40.89,52.13,41.76-52.99c4.61-5.76,11.52-9.5,19.87-9.5,15.55,0,25.92,10.08,25.92,25.63,0,6.91-2.59,13.54-6.62,18.43l-44.93,52.41,46.94,54.72Z"/><path class="cls-1" d="M456.06,447.87v139.97c0,17.57-10.08,28.22-26.5,28.22s-26.5-10.65-26.5-28.22v-139.97c0-17.57,10.08-28.22,26.5-28.22s26.5,10.66,26.5,28.22"/><path class="cls-1" d="M571.99,495.1c58.46.58,80.93,19.58,80.93,58.46,0,42.91-30.24,65.95-86.69,65.95-34.27,0-60.48-8.35-78.05-24.77-4.9-4.32-8.06-10.94-8.06-19.01,0-14.11,9.5-24.19,23.33-24.19,8.35,0,13.82,3.17,18.72,6.91,12.67,10.37,27.65,14.98,46.94,14.98,21.31,0,31.1-5.47,31.1-17.28,0-8.64-8.07-12.96-37.15-13.25-57.89-.58-80.06-19.01-80.06-57.31,0-40.89,32.83-65.95,86.11-65.95,25.34,0,46.08,5.47,63.36,16.7,7.49,4.9,12.1,12.38,12.1,22.46,0,14.11-9.5,24.19-23.33,24.19-7.49,0-12.96-3.17-17.85-6.34-11.81-7.49-24.19-10.94-38.59-10.94-18.14,0-29.09,6.34-29.09,16.7,0,8.06,8.35,12.38,36.29,12.67"/><path class="cls-2" d="M160.58,509.84c0-45.36-22.56-68.4-64.56-68.4s-64.8,23.04-64.8,68.4v30.24h129.36v-30.24ZM166.34,509.84v88.08c0,2.16-.96,3.36-2.88,3.36s-2.88-1.2-2.88-3.36v-52.56H31.21v52.56c0,2.16-.96,3.36-2.88,3.36s-2.88-1.2-2.88-3.36v-88.08c0-48.24,25.2-73.68,70.56-73.68s70.32,25.44,70.32,73.68"/><path class="cls-2" d="M293.29,520.49l-64.56,77.76c-.72.96-1.68,1.44-2.64,1.44-1.68,0-2.88-1.2-2.88-2.88,0-.96.24-1.44.96-2.4l65.04-78-62.64-75.12c-.72-.96-.96-1.68-.96-2.64,0-1.44,1.2-2.64,2.64-2.64s1.92.48,2.64,1.2l62.64,75.36,62.4-75.12c.72-.96,1.68-1.44,2.64-1.44,1.68,0,2.88,1.2,2.88,2.88,0,.96-.24,1.44-.96,2.4l-62.88,75.36,64.8,77.76c.72.96.96,1.68.96,2.64,0,1.44-1.2,2.64-2.64,2.64s-1.92-.48-2.64-1.2l-64.8-78Z"/><path class="cls-2" d="M432.44,439.37v156.96c0,2.16-.96,3.36-2.88,3.36s-2.88-1.2-2.88-3.36v-156.96c0-2.16.96-3.36,2.88-3.36s2.88,1.2,2.88,3.36"/><path class="cls-2" d="M565.8,514.78c52.8.48,69.6,12.72,69.6,40.8s-25.92,47.28-66.72,47.28c-34.8,0-60.48-10.08-70.56-28.08-.24-.48-.48-1.2-.48-1.92,0-1.68,1.2-2.88,2.88-2.88,1.2,0,1.92.72,2.4,1.44,9.36,16.56,33.36,26.16,65.76,26.16,37.44,0,60.96-16.32,60.96-42.48,0-24.24-16.32-34.32-63.84-34.56-49.2-.24-65.76-11.04-65.76-36.96,0-28.32,26.16-47.28,65.28-47.28,28.32,0,51.84,9.12,62.4,24,.48.72.72,1.44.72,2.4,0,1.68-1.2,2.64-2.64,2.64-1.2,0-1.92-.48-2.64-1.44-9.6-14.16-30.96-22.32-57.84-22.32-36.24,0-59.52,16.56-59.52,42.48,0,21.6,14.64,30.24,60,30.72"/></g></svg>